<mxfile host="app.diagrams.net" modified="2024-07-06T18:35:45.368Z" agent="Mozilla/5.0 (Windows NT 10.0; Win64; x64) AppleWebKit/537.36 (KHTML, like Gecko) Chrome/126.0.0.0 Safari/537.36" etag="O7x9uFxCaWVn_fWDt3P-" version="24.6.4" type="device">
  <diagram name="Page-1" id="1hfMfTK2yjsWsucCjEhh">
    <mxGraphModel dx="1908" dy="1284" grid="1" gridSize="10" guides="1" tooltips="1" connect="1" arrows="1" fold="1" page="1" pageScale="1" pageWidth="827" pageHeight="1169" math="0" shadow="0">
      <root>
        <mxCell id="0" />
        <mxCell id="1" parent="0" />
        <mxCell id="CAX5XdgEWYL_8YnyTvap-11" value="" style="rounded=0;whiteSpace=wrap;html=1;" parent="1" vertex="1">
          <mxGeometry x="40" y="40" width="300" height="170" as="geometry" />
        </mxCell>
        <mxCell id="CAX5XdgEWYL_8YnyTvap-12" value="" style="rounded=0;whiteSpace=wrap;html=1;" parent="1" vertex="1">
          <mxGeometry x="10" y="60" width="80" height="40" as="geometry" />
        </mxCell>
        <mxCell id="CAX5XdgEWYL_8YnyTvap-13" value="" style="rounded=0;whiteSpace=wrap;html=1;" parent="1" vertex="1">
          <mxGeometry x="10" y="150" width="80" height="40" as="geometry" />
        </mxCell>
        <mxCell id="CAX5XdgEWYL_8YnyTvap-14" value="&amp;lt;&amp;lt;component&amp;gt;&amp;gt;&lt;br&gt;Korisnik" style="rounded=0;whiteSpace=wrap;html=1;" parent="1" vertex="1">
          <mxGeometry x="135" y="105" width="110" height="45" as="geometry" />
        </mxCell>
        <mxCell id="CAX5XdgEWYL_8YnyTvap-15" value="Korisnici" style="text;html=1;align=center;verticalAlign=middle;resizable=0;points=[];autosize=1;strokeColor=none;fillColor=none;" parent="1" vertex="1">
          <mxGeometry x="155" y="40" width="70" height="30" as="geometry" />
        </mxCell>
        <mxCell id="CAX5XdgEWYL_8YnyTvap-16" value="" style="rounded=0;whiteSpace=wrap;html=1;" parent="1" vertex="1">
          <mxGeometry x="40" y="390" width="300" height="170" as="geometry" />
        </mxCell>
        <mxCell id="CAX5XdgEWYL_8YnyTvap-21" value="" style="endArrow=none;html=1;rounded=0;entryX=0.5;entryY=1;entryDx=0;entryDy=0;exitX=1;exitY=0.5;exitDx=0;exitDy=0;exitPerimeter=0;" parent="1" target="CAX5XdgEWYL_8YnyTvap-11" edge="1">
          <mxGeometry width="50" height="50" relative="1" as="geometry">
            <mxPoint x="190" y="285" as="sourcePoint" />
            <mxPoint x="310" y="280" as="targetPoint" />
          </mxGeometry>
        </mxCell>
        <mxCell id="CAX5XdgEWYL_8YnyTvap-22" value="" style="endArrow=none;html=1;rounded=0;entryX=0;entryY=0.5;entryDx=0;entryDy=0;entryPerimeter=0;exitX=0.583;exitY=0.067;exitDx=0;exitDy=0;exitPerimeter=0;" parent="1" source="CAX5XdgEWYL_8YnyTvap-42" target="CAX5XdgEWYL_8YnyTvap-68" edge="1">
          <mxGeometry width="50" height="50" relative="1" as="geometry">
            <mxPoint x="190" y="380" as="sourcePoint" />
            <mxPoint x="190" y="320" as="targetPoint" />
          </mxGeometry>
        </mxCell>
        <mxCell id="CAX5XdgEWYL_8YnyTvap-24" value="Podaci za prijavu" style="text;html=1;align=center;verticalAlign=middle;resizable=0;points=[];autosize=1;strokeColor=none;fillColor=none;" parent="1" vertex="1">
          <mxGeometry x="207.5" y="290" width="110" height="30" as="geometry" />
        </mxCell>
        <mxCell id="CAX5XdgEWYL_8YnyTvap-25" value="" style="rounded=0;whiteSpace=wrap;html=1;" parent="1" vertex="1">
          <mxGeometry x="10" y="420" width="90" height="40" as="geometry" />
        </mxCell>
        <mxCell id="CAX5XdgEWYL_8YnyTvap-26" value="" style="rounded=0;whiteSpace=wrap;html=1;" parent="1" vertex="1">
          <mxGeometry x="10" y="500" width="90" height="40" as="geometry" />
        </mxCell>
        <mxCell id="CAX5XdgEWYL_8YnyTvap-27" value="&amp;lt;&amp;lt;component&amp;gt;&amp;gt;&lt;br&gt;Prijava" style="rounded=0;whiteSpace=wrap;html=1;" parent="1" vertex="1">
          <mxGeometry x="135" y="445" width="115" height="45" as="geometry" />
        </mxCell>
        <mxCell id="CAX5XdgEWYL_8YnyTvap-42" value="Prijava" style="text;html=1;align=center;verticalAlign=middle;resizable=0;points=[];autosize=1;strokeColor=none;fillColor=none;" parent="1" vertex="1">
          <mxGeometry x="155" y="390" width="60" height="30" as="geometry" />
        </mxCell>
        <mxCell id="bg64vVWG6fBi2YdcmEhS-18" style="edgeStyle=none;curved=1;rounded=0;orthogonalLoop=1;jettySize=auto;html=1;fontSize=12;startSize=8;endSize=8;" edge="1" parent="1" source="CAX5XdgEWYL_8YnyTvap-47" target="bg64vVWG6fBi2YdcmEhS-11">
          <mxGeometry relative="1" as="geometry" />
        </mxCell>
        <mxCell id="bg64vVWG6fBi2YdcmEhS-24" style="edgeStyle=none;curved=1;rounded=0;orthogonalLoop=1;jettySize=auto;html=1;fontSize=12;startSize=8;endSize=8;" edge="1" parent="1" source="CAX5XdgEWYL_8YnyTvap-47" target="bg64vVWG6fBi2YdcmEhS-19">
          <mxGeometry relative="1" as="geometry" />
        </mxCell>
        <mxCell id="CAX5XdgEWYL_8YnyTvap-47" value="" style="shape=providedRequiredInterface;html=1;verticalLabelPosition=bottom;sketch=0;direction=west;rotation=45;fillColor=#1ba1e2;fontColor=#ffffff;strokeColor=#006EAF;" parent="1" vertex="1">
          <mxGeometry x="690" y="455" width="40" height="40" as="geometry" />
        </mxCell>
        <mxCell id="CAX5XdgEWYL_8YnyTvap-48" value="" style="endArrow=none;html=1;rounded=0;exitX=1.01;exitY=0.541;exitDx=0;exitDy=0;exitPerimeter=0;entryX=0.801;entryY=0.093;entryDx=0;entryDy=0;entryPerimeter=0;" parent="1" source="CAX5XdgEWYL_8YnyTvap-16" target="CAX5XdgEWYL_8YnyTvap-47" edge="1">
          <mxGeometry width="50" height="50" relative="1" as="geometry">
            <mxPoint x="620" y="330" as="sourcePoint" />
            <mxPoint x="870" y="430" as="targetPoint" />
          </mxGeometry>
        </mxCell>
        <mxCell id="CAX5XdgEWYL_8YnyTvap-49" value="Pristup sustavu" style="text;html=1;align=center;verticalAlign=middle;resizable=0;points=[];autosize=1;strokeColor=none;fillColor=none;" parent="1" vertex="1">
          <mxGeometry x="820" y="430" width="110" height="30" as="geometry" />
        </mxCell>
        <mxCell id="CAX5XdgEWYL_8YnyTvap-51" value="" style="endArrow=none;html=1;rounded=0;entryX=0;entryY=0.5;entryDx=0;entryDy=0;" parent="1" target="bg64vVWG6fBi2YdcmEhS-5" edge="1">
          <mxGeometry width="50" height="50" relative="1" as="geometry">
            <mxPoint x="730" y="475" as="sourcePoint" />
            <mxPoint x="1142.0000000000002" y="892.0600000000002" as="targetPoint" />
          </mxGeometry>
        </mxCell>
        <mxCell id="CAX5XdgEWYL_8YnyTvap-68" value="" style="shape=providedRequiredInterface;html=1;verticalLabelPosition=bottom;sketch=0;direction=north;fillColor=#1ba1e2;fontColor=#ffffff;strokeColor=#006EAF;" parent="1" vertex="1">
          <mxGeometry x="170" y="280" width="40" height="40" as="geometry" />
        </mxCell>
        <mxCell id="bg64vVWG6fBi2YdcmEhS-5" value="" style="rounded=0;whiteSpace=wrap;html=1;" vertex="1" parent="1">
          <mxGeometry x="1130" y="330" width="340" height="280" as="geometry" />
        </mxCell>
        <mxCell id="bg64vVWG6fBi2YdcmEhS-6" value="" style="rounded=0;whiteSpace=wrap;html=1;" vertex="1" parent="1">
          <mxGeometry x="1080" y="410" width="100" height="50" as="geometry" />
        </mxCell>
        <mxCell id="bg64vVWG6fBi2YdcmEhS-7" value="" style="rounded=0;whiteSpace=wrap;html=1;" vertex="1" parent="1">
          <mxGeometry x="1080" y="495" width="100" height="45" as="geometry" />
        </mxCell>
        <mxCell id="bg64vVWG6fBi2YdcmEhS-30" style="edgeStyle=none;curved=1;rounded=0;orthogonalLoop=1;jettySize=auto;html=1;fontSize=12;startSize=8;endSize=8;" edge="1" parent="1" source="bg64vVWG6fBi2YdcmEhS-8" target="bg64vVWG6fBi2YdcmEhS-27">
          <mxGeometry relative="1" as="geometry" />
        </mxCell>
        <mxCell id="bg64vVWG6fBi2YdcmEhS-8" value="&amp;lt;&amp;lt;component&amp;gt;&amp;gt;&lt;br&gt;Prijava na natječaj" style="rounded=0;whiteSpace=wrap;html=1;" vertex="1" parent="1">
          <mxGeometry x="1190" y="370" width="120" height="60" as="geometry" />
        </mxCell>
        <mxCell id="bg64vVWG6fBi2YdcmEhS-9" value="&lt;blockquote style=&quot;margin: 0 0 0 40px; border: none; padding: 0px;&quot;&gt;Natječaji&lt;/blockquote&gt;" style="text;html=1;align=center;verticalAlign=middle;resizable=0;points=[];autosize=1;strokeColor=none;fillColor=none;" vertex="1" parent="1">
          <mxGeometry x="1240" y="330" width="110" height="30" as="geometry" />
        </mxCell>
        <mxCell id="bg64vVWG6fBi2YdcmEhS-11" value="" style="rounded=0;whiteSpace=wrap;html=1;" vertex="1" parent="1">
          <mxGeometry x="565" y="650" width="340" height="170" as="geometry" />
        </mxCell>
        <mxCell id="bg64vVWG6fBi2YdcmEhS-12" value="" style="rounded=0;whiteSpace=wrap;html=1;" vertex="1" parent="1">
          <mxGeometry x="515" y="670" width="100" height="50" as="geometry" />
        </mxCell>
        <mxCell id="bg64vVWG6fBi2YdcmEhS-13" value="" style="rounded=0;whiteSpace=wrap;html=1;" vertex="1" parent="1">
          <mxGeometry x="515" y="755" width="100" height="45" as="geometry" />
        </mxCell>
        <mxCell id="bg64vVWG6fBi2YdcmEhS-14" value="&amp;lt;&amp;lt;component&amp;gt;&amp;gt;&lt;br&gt;Upravljanje korisnicima/firmama" style="rounded=0;whiteSpace=wrap;html=1;" vertex="1" parent="1">
          <mxGeometry x="675" y="705" width="120" height="60" as="geometry" />
        </mxCell>
        <mxCell id="bg64vVWG6fBi2YdcmEhS-15" value="&lt;blockquote style=&quot;margin: 0 0 0 40px; border: none; padding: 0px;&quot;&gt;Upravljanje korisnicima&lt;/blockquote&gt;" style="text;html=1;align=center;verticalAlign=middle;resizable=0;points=[];autosize=1;strokeColor=none;fillColor=none;" vertex="1" parent="1">
          <mxGeometry x="640" y="650" width="190" height="30" as="geometry" />
        </mxCell>
        <mxCell id="bg64vVWG6fBi2YdcmEhS-17" value="Pristup sustavu&lt;br&gt;(za administratora)" style="text;html=1;align=center;verticalAlign=middle;resizable=0;points=[];autosize=1;strokeColor=none;fillColor=none;" vertex="1" parent="1">
          <mxGeometry x="712" y="550" width="120" height="40" as="geometry" />
        </mxCell>
        <mxCell id="bg64vVWG6fBi2YdcmEhS-19" value="" style="rounded=0;whiteSpace=wrap;html=1;" vertex="1" parent="1">
          <mxGeometry x="610" y="120" width="340" height="230" as="geometry" />
        </mxCell>
        <mxCell id="bg64vVWG6fBi2YdcmEhS-20" value="" style="rounded=0;whiteSpace=wrap;html=1;" vertex="1" parent="1">
          <mxGeometry x="550" y="160" width="100" height="50" as="geometry" />
        </mxCell>
        <mxCell id="bg64vVWG6fBi2YdcmEhS-21" value="" style="rounded=0;whiteSpace=wrap;html=1;" vertex="1" parent="1">
          <mxGeometry x="550" y="235" width="100" height="45" as="geometry" />
        </mxCell>
        <mxCell id="bg64vVWG6fBi2YdcmEhS-34" style="edgeStyle=none;curved=1;rounded=0;orthogonalLoop=1;jettySize=auto;html=1;fontSize=12;startSize=8;endSize=8;" edge="1" parent="1" source="bg64vVWG6fBi2YdcmEhS-22" target="bg64vVWG6fBi2YdcmEhS-32">
          <mxGeometry relative="1" as="geometry" />
        </mxCell>
        <mxCell id="bg64vVWG6fBi2YdcmEhS-22" value="&amp;lt;&amp;lt;component&amp;gt;&amp;gt;&lt;br&gt;Generiranje izvještaja" style="rounded=0;whiteSpace=wrap;html=1;" vertex="1" parent="1">
          <mxGeometry x="710" y="160" width="120" height="60" as="geometry" />
        </mxCell>
        <mxCell id="bg64vVWG6fBi2YdcmEhS-23" value="&lt;blockquote style=&quot;margin: 0 0 0 40px; border: none; padding: 0px;&quot;&gt;Izvještaji&lt;/blockquote&gt;" style="text;html=1;align=center;verticalAlign=middle;resizable=0;points=[];autosize=1;strokeColor=none;fillColor=none;" vertex="1" parent="1">
          <mxGeometry x="717" y="120" width="110" height="30" as="geometry" />
        </mxCell>
        <mxCell id="bg64vVWG6fBi2YdcmEhS-25" value="Pristup sustavu" style="text;html=1;align=center;verticalAlign=middle;resizable=0;points=[];autosize=1;strokeColor=none;fillColor=none;" vertex="1" parent="1">
          <mxGeometry x="615" y="390" width="110" height="30" as="geometry" />
        </mxCell>
        <mxCell id="bg64vVWG6fBi2YdcmEhS-31" style="edgeStyle=none;curved=1;rounded=0;orthogonalLoop=1;jettySize=auto;html=1;fontSize=12;startSize=8;endSize=8;" edge="1" parent="1" source="bg64vVWG6fBi2YdcmEhS-26" target="bg64vVWG6fBi2YdcmEhS-27">
          <mxGeometry relative="1" as="geometry" />
        </mxCell>
        <mxCell id="bg64vVWG6fBi2YdcmEhS-26" value="&amp;lt;&amp;lt;component&amp;gt;&amp;gt;&lt;br&gt;Pregled natječaja" style="rounded=0;whiteSpace=wrap;html=1;" vertex="1" parent="1">
          <mxGeometry x="1200" y="510" width="120" height="60" as="geometry" />
        </mxCell>
        <mxCell id="bg64vVWG6fBi2YdcmEhS-27" value="&amp;lt;&amp;lt;component&amp;gt;&amp;gt;&lt;br&gt;Natječaj" style="rounded=0;whiteSpace=wrap;html=1;" vertex="1" parent="1">
          <mxGeometry x="1330" y="435" width="120" height="60" as="geometry" />
        </mxCell>
        <mxCell id="bg64vVWG6fBi2YdcmEhS-32" value="&lt;br&gt;&lt;span style=&quot;color: rgb(0, 0, 0); font-family: Helvetica; font-size: 12px; font-style: normal; font-variant-ligatures: normal; font-variant-caps: normal; font-weight: 400; letter-spacing: normal; orphans: 2; text-align: center; text-indent: 0px; text-transform: none; widows: 2; word-spacing: 0px; -webkit-text-stroke-width: 0px; white-space: normal; background-color: rgb(251, 251, 251); text-decoration-thickness: initial; text-decoration-style: initial; text-decoration-color: initial; display: inline !important; float: none;&quot;&gt;&amp;lt;&amp;lt;component&amp;gt;&amp;gt;&lt;/span&gt;&lt;br style=&quot;forced-color-adjust: none; color: rgb(0, 0, 0); font-family: Helvetica; font-size: 12px; font-style: normal; font-variant-ligatures: normal; font-variant-caps: normal; font-weight: 400; letter-spacing: normal; orphans: 2; text-align: center; text-indent: 0px; text-transform: none; widows: 2; word-spacing: 0px; -webkit-text-stroke-width: 0px; white-space: normal; background-color: rgb(251, 251, 251); text-decoration-thickness: initial; text-decoration-style: initial; text-decoration-color: initial;&quot;&gt;Pregled izvještaja&lt;div&gt;&lt;br/&gt;&lt;/div&gt;" style="rounded=0;whiteSpace=wrap;html=1;" vertex="1" parent="1">
          <mxGeometry x="712" y="260" width="120" height="60" as="geometry" />
        </mxCell>
      </root>
    </mxGraphModel>
  </diagram>
</mxfile>
